<svg width="1940" height="703" viewBox="0 0 1940 703" fill="none" xmlns="http://www.w3.org/2000/svg">
<rect x="371.032" y="277.732" width="266.153" height="79.379" fill="white"/>
<mask id="path-2-outside-1_5949_1573" maskUnits="userSpaceOnUse" x="104" y="87.0586" width="534" height="534" fill="black">
<rect fill="white" x="104" y="87.0586" width="534" height="534"/>
<path d="M620 278.64H408.383C397.818 278.64 392.536 278.64 388.286 280.113C380.559 282.793 374.485 288.866 371.806 296.593C370.332 300.843 370.332 306.126 370.332 316.69C370.332 327.255 370.332 332.537 371.806 336.787C374.485 344.514 380.559 350.588 388.286 353.268C392.536 354.741 397.819 354.741 408.383 354.741H619.998C619.63 491.946 508.291 603.059 371 603.059C233.481 603.059 122 491.577 122 354.059C122 216.54 233.481 105.059 371 105.059H620V278.64Z"/>
</mask>
<path d="M620 278.64H408.383C397.818 278.64 392.536 278.64 388.286 280.113C380.559 282.793 374.485 288.866 371.806 296.593C370.332 300.843 370.332 306.126 370.332 316.69C370.332 327.255 370.332 332.537 371.806 336.787C374.485 344.514 380.559 350.588 388.286 353.268C392.536 354.741 397.819 354.741 408.383 354.741H619.998C619.63 491.946 508.291 603.059 371 603.059C233.481 603.059 122 491.577 122 354.059C122 216.54 233.481 105.059 371 105.059H620V278.64Z" fill="url(#paint0_radial_5949_1573)"/>
<path d="M620 278.64H408.383C397.818 278.64 392.536 278.64 388.286 280.113C380.559 282.793 374.485 288.866 371.806 296.593C370.332 300.843 370.332 306.126 370.332 316.69C370.332 327.255 370.332 332.537 371.806 336.787C374.485 344.514 380.559 350.588 388.286 353.268C392.536 354.741 397.819 354.741 408.383 354.741H619.998C619.63 491.946 508.291 603.059 371 603.059C233.481 603.059 122 491.577 122 354.059C122 216.54 233.481 105.059 371 105.059H620V278.64Z" fill="url(#paint1_linear_5949_1573)" fill-opacity="0.2"/>
<path d="M620 278.64V296.539H637.899V278.64H620ZM408.383 278.64V260.74V278.64ZM388.286 280.113L382.422 263.202L382.422 263.202L388.286 280.113ZM371.806 296.593L354.894 290.728L354.894 290.728L371.806 296.593ZM370.332 316.69H352.433H370.332ZM371.806 336.787L354.894 342.651L354.894 342.651L371.806 336.787ZM388.286 353.268L382.422 370.179L382.422 370.179L388.286 353.268ZM408.383 354.741V372.64V354.741ZM619.998 354.741L637.897 354.789L637.945 336.842H619.998V354.741ZM371 603.059V620.958V603.059ZM122 354.059L104.101 354.059V354.059H122ZM371 105.059V87.1594V105.059ZM620 105.059H637.899V87.1594H620V105.059ZM620 278.64V260.74H408.383V278.64V296.539H620V278.64ZM408.383 278.64V260.74C399.304 260.74 390.239 260.491 382.422 263.202L388.286 280.113L394.15 297.025C394.063 297.055 394.6 296.832 397.004 296.693C399.537 296.546 402.893 296.539 408.383 296.539V278.64ZM388.286 280.113L382.422 263.202C369.516 267.677 359.371 277.821 354.894 290.728L371.806 296.593L388.717 302.457C389.6 299.911 391.602 297.908 394.15 297.025L388.286 280.113ZM371.806 296.593L354.894 290.728C352.184 298.546 352.433 307.611 352.433 316.69H370.332H388.231C388.231 311.2 388.238 307.845 388.385 305.311C388.525 302.907 388.747 302.37 388.717 302.457L371.806 296.593ZM370.332 316.69H352.433C352.433 325.77 352.184 334.834 354.894 342.651L371.806 336.787L388.717 330.923C388.747 331.01 388.525 330.473 388.385 328.069C388.238 325.536 388.231 322.18 388.231 316.69H370.332ZM371.806 336.787L354.894 342.651C359.37 355.559 369.515 365.703 382.422 370.179L388.286 353.268L394.15 336.356C391.603 335.473 389.6 333.47 388.717 330.923L371.806 336.787ZM388.286 353.268L382.422 370.179C390.239 372.89 399.304 372.64 408.383 372.64V354.741V336.842C402.893 336.842 399.537 336.835 397.004 336.688C394.6 336.548 394.063 336.326 394.15 336.356L388.286 353.268ZM408.383 354.741V372.64H619.998V354.741V336.842H408.383V354.741ZM619.998 354.741L602.099 354.693C601.757 482.034 498.422 585.159 371 585.159V603.059V620.958C518.161 620.958 637.503 501.858 637.897 354.789L619.998 354.741ZM371 603.059V585.159C243.367 585.159 139.899 481.692 139.899 354.059H122H104.101C104.101 501.463 223.596 620.958 371 620.958V603.059ZM122 354.059L139.899 354.059C139.899 226.425 243.367 122.958 371 122.958V105.059V87.1594C223.596 87.1594 104.101 206.654 104.101 354.059L122 354.059ZM371 105.059V122.958H620V105.059V87.1594H371V105.059ZM620 105.059H602.101V278.64H620H637.899V105.059H620Z" fill="white" mask="url(#path-2-outside-1_5949_1573)"/>
<path d="M402.068 299.863H428.181V307.234H418.757V338.611H411.124V307.234H402.068V299.863ZM462.925 299.863H489.354V307.234H470.559V315.499H487.195V322.87H470.559V331.241H490.091V338.611H462.925V299.863ZM554.426 335.4C554.005 335.751 553.215 336.225 552.057 336.821C550.934 337.418 549.547 337.944 547.898 338.401C546.248 338.857 544.423 339.068 542.423 339.033C539.369 338.962 536.631 338.418 534.21 337.4C531.823 336.348 529.787 334.926 528.103 333.136C526.453 331.346 525.19 329.293 524.312 326.976C523.435 324.66 522.996 322.185 522.996 319.553C522.996 316.605 523.435 313.902 524.312 311.446C525.225 308.989 526.506 306.865 528.155 305.075C529.84 303.285 531.841 301.899 534.157 300.916C536.474 299.933 539.036 299.442 541.843 299.442C544.441 299.442 546.74 299.793 548.74 300.495C550.741 301.197 552.373 301.952 553.636 302.759L550.636 309.971C549.758 309.305 548.582 308.62 547.108 307.918C545.669 307.181 544.002 306.813 542.107 306.813C540.633 306.813 539.211 307.128 537.842 307.76C536.509 308.357 535.315 309.217 534.262 310.34C533.244 311.463 532.437 312.779 531.841 314.288C531.244 315.763 530.946 317.377 530.946 319.132C530.946 320.992 531.209 322.694 531.735 324.239C532.297 325.783 533.087 327.117 534.104 328.24C535.122 329.328 536.333 330.17 537.737 330.767C539.176 331.364 540.791 331.662 542.581 331.662C544.651 331.662 546.424 331.329 547.898 330.662C549.372 329.995 550.495 329.293 551.267 328.556L554.426 335.4ZM622.039 299.863V338.611H614.405V322.87H597.084V338.611H589.45V299.863H597.084V315.499H614.405V299.863H622.039Z" fill="#6600CE"/>
<mask id="path-5-outside-2_5949_1573" maskUnits="userSpaceOnUse" x="743" y="177" width="1082" height="345" fill="black">
<rect fill="white" x="743" y="177" width="1082" height="345"/>
<path d="M767.659 273.444C767.659 262.238 769.734 252.208 773.884 243.354C778.173 234.361 783.914 226.752 791.108 220.527C798.441 214.301 806.88 209.597 816.426 206.416C826.11 203.095 836.278 201.435 846.931 201.435C856.892 201.435 865.677 202.68 873.286 205.17C880.895 207.522 887.467 210.704 893 214.716C898.534 218.59 903.169 223.086 906.904 228.205C910.64 233.186 913.614 238.374 915.828 243.769C918.041 249.165 919.632 254.56 920.601 259.956C921.569 265.213 922.053 270.055 922.053 274.482V293.366C922.053 296.548 921.638 298.831 920.808 300.214C919.978 301.459 918.249 302.082 915.62 302.082H875.154C872.664 302.082 870.934 301.459 869.966 300.214C869.136 298.969 868.721 296.963 868.721 294.196V275.935C868.721 272.891 868.236 269.917 867.268 267.011C866.3 263.968 864.847 261.27 862.91 258.918C861.112 256.566 858.829 254.698 856.062 253.315C853.295 251.931 850.113 251.24 846.516 251.24C839.737 251.24 834.342 253.592 830.33 258.295C826.456 262.999 824.519 268.671 824.519 275.312V422.858C824.519 426.594 825.072 429.983 826.179 433.027C827.424 435.932 829.015 438.492 830.952 440.705C832.889 442.919 835.172 444.648 837.8 445.893C840.567 447 843.542 447.553 846.724 447.553C850.044 447.553 853.088 446.931 855.854 445.686C858.76 444.44 861.25 442.78 863.325 440.705C865.4 438.492 866.991 436.001 868.098 433.234C869.343 430.329 869.966 427.216 869.966 423.896V383.637H854.402C850.251 383.637 848.176 381.285 848.176 376.582V345.246C848.176 340.266 850.251 337.775 854.402 337.775H915.828C920.808 337.775 923.298 340.404 923.298 345.661V425.556C923.298 436.762 921.292 446.861 917.28 455.854C913.268 464.708 907.804 472.248 900.886 478.474C893.969 484.699 885.876 489.472 876.606 492.792C867.337 495.974 857.376 497.565 846.724 497.565C836.209 497.565 826.179 495.974 816.633 492.792C807.087 489.611 798.648 484.976 791.316 478.889C784.122 472.663 778.381 465.123 774.092 456.269C769.803 447.277 767.659 437.039 767.659 425.556V273.444ZM958.253 370.979C958.253 369.042 958.875 367.589 960.121 366.621C961.504 365.514 962.818 364.96 964.063 364.96H1061.39C1062.77 364.96 1064.02 365.514 1065.13 366.621C1066.37 367.589 1066.99 368.972 1066.99 370.771V399.824C1066.99 401.484 1066.3 402.867 1064.92 403.974C1063.67 405.081 1062.43 405.634 1061.18 405.634H963.648C962.957 405.634 961.85 405.15 960.328 404.182C958.945 403.213 958.253 401.691 958.253 399.616V370.979ZM1092.4 213.471C1092.4 210.981 1092.96 209.113 1094.06 207.868C1095.17 206.485 1096.69 205.793 1098.63 205.793H1234.35C1236.14 205.793 1237.6 206.485 1238.7 207.868C1239.95 209.113 1240.57 210.981 1240.57 213.471V248.75C1240.57 251.24 1239.95 253.107 1238.7 254.353C1237.6 255.598 1236.14 256.22 1234.35 256.22H1194.92V485.737C1194.92 488.089 1194.29 489.887 1193.05 491.132C1191.94 492.377 1190.56 493 1188.9 493H1144.07C1140.06 493 1138.06 490.579 1138.06 485.737V256.22H1098.63C1096.69 256.22 1095.17 255.598 1094.06 254.353C1092.96 253.107 1092.4 251.24 1092.4 248.75V213.471ZM1272.41 213.886C1272.41 211.396 1273.04 209.459 1274.28 208.076C1275.53 206.554 1277.32 205.793 1279.68 205.793H1406.68C1410.69 205.793 1412.7 208.352 1412.7 213.471V248.75C1412.7 253.73 1410.69 256.22 1406.68 256.22H1329.27V322.834H1390.91C1392.84 322.834 1394.43 323.387 1395.68 324.494C1397.06 325.601 1397.75 327.469 1397.75 330.097V365.583C1397.75 368.073 1397.13 369.872 1395.89 370.979C1394.64 372.085 1392.98 372.639 1390.91 372.639H1329.27V442.988H1407.72C1409.51 442.988 1410.97 443.61 1412.07 444.855C1413.32 445.962 1413.94 447.692 1413.94 450.043V485.737C1413.94 488.227 1413.32 490.095 1412.07 491.34C1410.97 492.447 1409.51 493 1407.72 493H1279.68C1274.83 493 1272.41 490.371 1272.41 485.114V213.886ZM1444.54 273.444C1444.54 263.207 1446.47 253.73 1450.35 245.014C1454.36 236.16 1459.82 228.551 1466.74 222.187C1473.8 215.685 1482.17 210.635 1491.85 207.038C1501.54 203.303 1512.19 201.435 1523.81 201.435C1536.68 201.435 1547.81 203.579 1557.22 207.868C1566.77 212.019 1574.58 217.552 1580.67 224.47C1586.9 231.249 1591.46 238.996 1594.37 247.712C1597.41 256.428 1598.93 265.351 1598.93 274.482V294.611C1598.93 297.793 1598.45 300.145 1597.48 301.667C1596.65 303.05 1594.92 303.742 1592.29 303.742H1552.45C1549.96 303.742 1548.23 303.12 1547.26 301.875C1546.29 300.491 1545.81 298.347 1545.81 295.441V276.142C1545.81 273.098 1545.32 270.124 1544.35 267.219C1543.39 264.175 1542 261.477 1540.2 259.125C1538.41 256.774 1536.12 254.906 1533.36 253.522C1530.73 252.001 1527.68 251.24 1524.23 251.24C1520.77 251.24 1517.65 251.931 1514.89 253.315C1512.12 254.56 1509.7 256.359 1507.62 258.71C1505.69 260.924 1504.16 263.483 1503.06 266.389C1501.95 269.294 1501.4 272.407 1501.4 275.727V422.443C1501.4 425.764 1501.88 428.946 1502.85 431.989C1503.82 434.895 1505.27 437.523 1507.21 439.875C1509.15 442.227 1511.5 444.095 1514.26 445.478C1517.17 446.861 1520.49 447.553 1524.23 447.553C1527.96 447.553 1531.21 446.861 1533.98 445.478C1536.88 444.095 1539.24 442.227 1541.03 439.875C1542.97 437.523 1544.42 434.895 1545.39 431.989C1546.36 428.946 1546.84 425.764 1546.84 422.443V397.749C1546.84 394.567 1547.33 392.422 1548.3 391.315C1549.27 390.209 1550.93 389.655 1553.28 389.655H1593.12C1595.61 389.655 1597.41 390.139 1598.52 391.108C1599.62 392.076 1600.18 394.152 1600.18 397.333V425.556C1600.18 436.762 1598.17 446.861 1594.16 455.854C1590.15 464.708 1584.68 472.248 1577.77 478.474C1570.99 484.699 1562.89 489.472 1553.49 492.792C1544.22 495.974 1534.32 497.565 1523.81 497.565C1513.16 497.565 1502.99 495.974 1493.3 492.792C1483.76 489.472 1475.32 484.699 1467.99 478.474C1460.79 472.248 1455.05 464.708 1450.76 455.854C1446.61 446.861 1444.54 436.762 1444.54 425.556V273.444ZM1640.32 213.886C1640.32 211.396 1640.94 209.459 1642.19 208.076C1643.43 206.554 1645.23 205.793 1647.58 205.793H1690.12C1692.48 205.793 1694.21 206.554 1695.31 208.076C1696.56 209.459 1697.18 211.396 1697.18 213.886V320.966H1743.25V213.886C1743.25 211.673 1743.8 209.805 1744.91 208.283C1746.15 206.623 1748.02 205.793 1750.51 205.793H1793.05C1794.85 205.793 1796.44 206.346 1797.83 207.453C1799.35 208.56 1800.11 210.635 1800.11 213.679V485.114C1800.11 490.371 1797.41 493 1792.02 493H1750.51C1745.67 493 1743.25 490.371 1743.25 485.114V370.979H1697.18V485.114C1697.18 490.371 1694.83 493 1690.12 493H1647.58C1642.74 493 1640.32 490.371 1640.32 485.114V213.886Z"/>
</mask>
<path d="M767.659 273.444C767.659 262.238 769.734 252.208 773.884 243.354C778.173 234.361 783.914 226.752 791.108 220.527C798.441 214.301 806.88 209.597 816.426 206.416C826.11 203.095 836.278 201.435 846.931 201.435C856.892 201.435 865.677 202.68 873.286 205.17C880.895 207.522 887.467 210.704 893 214.716C898.534 218.59 903.169 223.086 906.904 228.205C910.64 233.186 913.614 238.374 915.828 243.769C918.041 249.165 919.632 254.56 920.601 259.956C921.569 265.213 922.053 270.055 922.053 274.482V293.366C922.053 296.548 921.638 298.831 920.808 300.214C919.978 301.459 918.249 302.082 915.62 302.082H875.154C872.664 302.082 870.934 301.459 869.966 300.214C869.136 298.969 868.721 296.963 868.721 294.196V275.935C868.721 272.891 868.236 269.917 867.268 267.011C866.3 263.968 864.847 261.27 862.91 258.918C861.112 256.566 858.829 254.698 856.062 253.315C853.295 251.931 850.113 251.24 846.516 251.24C839.737 251.24 834.342 253.592 830.33 258.295C826.456 262.999 824.519 268.671 824.519 275.312V422.858C824.519 426.594 825.072 429.983 826.179 433.027C827.424 435.932 829.015 438.492 830.952 440.705C832.889 442.919 835.172 444.648 837.8 445.893C840.567 447 843.542 447.553 846.724 447.553C850.044 447.553 853.088 446.931 855.854 445.686C858.76 444.44 861.25 442.78 863.325 440.705C865.4 438.492 866.991 436.001 868.098 433.234C869.343 430.329 869.966 427.216 869.966 423.896V383.637H854.402C850.251 383.637 848.176 381.285 848.176 376.582V345.246C848.176 340.266 850.251 337.775 854.402 337.775H915.828C920.808 337.775 923.298 340.404 923.298 345.661V425.556C923.298 436.762 921.292 446.861 917.28 455.854C913.268 464.708 907.804 472.248 900.886 478.474C893.969 484.699 885.876 489.472 876.606 492.792C867.337 495.974 857.376 497.565 846.724 497.565C836.209 497.565 826.179 495.974 816.633 492.792C807.087 489.611 798.648 484.976 791.316 478.889C784.122 472.663 778.381 465.123 774.092 456.269C769.803 447.277 767.659 437.039 767.659 425.556V273.444ZM958.253 370.979C958.253 369.042 958.875 367.589 960.121 366.621C961.504 365.514 962.818 364.96 964.063 364.96H1061.39C1062.77 364.96 1064.02 365.514 1065.13 366.621C1066.37 367.589 1066.99 368.972 1066.99 370.771V399.824C1066.99 401.484 1066.3 402.867 1064.92 403.974C1063.67 405.081 1062.43 405.634 1061.18 405.634H963.648C962.957 405.634 961.85 405.15 960.328 404.182C958.945 403.213 958.253 401.691 958.253 399.616V370.979ZM1092.4 213.471C1092.4 210.981 1092.96 209.113 1094.06 207.868C1095.17 206.485 1096.69 205.793 1098.63 205.793H1234.35C1236.14 205.793 1237.6 206.485 1238.7 207.868C1239.95 209.113 1240.57 210.981 1240.57 213.471V248.75C1240.57 251.24 1239.95 253.107 1238.7 254.353C1237.6 255.598 1236.14 256.22 1234.35 256.22H1194.92V485.737C1194.92 488.089 1194.29 489.887 1193.05 491.132C1191.94 492.377 1190.56 493 1188.9 493H1144.07C1140.06 493 1138.06 490.579 1138.06 485.737V256.22H1098.63C1096.69 256.22 1095.17 255.598 1094.06 254.353C1092.96 253.107 1092.4 251.24 1092.4 248.75V213.471ZM1272.41 213.886C1272.41 211.396 1273.04 209.459 1274.28 208.076C1275.53 206.554 1277.32 205.793 1279.68 205.793H1406.68C1410.69 205.793 1412.7 208.352 1412.7 213.471V248.75C1412.7 253.73 1410.69 256.22 1406.68 256.22H1329.27V322.834H1390.91C1392.84 322.834 1394.43 323.387 1395.68 324.494C1397.06 325.601 1397.75 327.469 1397.75 330.097V365.583C1397.75 368.073 1397.13 369.872 1395.89 370.979C1394.64 372.085 1392.98 372.639 1390.91 372.639H1329.27V442.988H1407.72C1409.51 442.988 1410.97 443.61 1412.07 444.855C1413.32 445.962 1413.94 447.692 1413.94 450.043V485.737C1413.94 488.227 1413.32 490.095 1412.07 491.34C1410.97 492.447 1409.51 493 1407.72 493H1279.68C1274.83 493 1272.41 490.371 1272.41 485.114V213.886ZM1444.54 273.444C1444.54 263.207 1446.47 253.73 1450.35 245.014C1454.36 236.16 1459.82 228.551 1466.74 222.187C1473.8 215.685 1482.17 210.635 1491.85 207.038C1501.54 203.303 1512.19 201.435 1523.81 201.435C1536.68 201.435 1547.81 203.579 1557.22 207.868C1566.77 212.019 1574.58 217.552 1580.67 224.47C1586.9 231.249 1591.46 238.996 1594.37 247.712C1597.41 256.428 1598.93 265.351 1598.93 274.482V294.611C1598.93 297.793 1598.45 300.145 1597.48 301.667C1596.65 303.05 1594.92 303.742 1592.29 303.742H1552.45C1549.96 303.742 1548.23 303.12 1547.26 301.875C1546.29 300.491 1545.81 298.347 1545.81 295.441V276.142C1545.81 273.098 1545.32 270.124 1544.35 267.219C1543.39 264.175 1542 261.477 1540.2 259.125C1538.41 256.774 1536.12 254.906 1533.36 253.522C1530.73 252.001 1527.68 251.24 1524.23 251.24C1520.77 251.24 1517.65 251.931 1514.89 253.315C1512.12 254.56 1509.7 256.359 1507.62 258.71C1505.69 260.924 1504.16 263.483 1503.06 266.389C1501.95 269.294 1501.4 272.407 1501.4 275.727V422.443C1501.4 425.764 1501.88 428.946 1502.85 431.989C1503.82 434.895 1505.27 437.523 1507.21 439.875C1509.15 442.227 1511.5 444.095 1514.26 445.478C1517.17 446.861 1520.49 447.553 1524.23 447.553C1527.96 447.553 1531.21 446.861 1533.98 445.478C1536.88 444.095 1539.24 442.227 1541.03 439.875C1542.97 437.523 1544.42 434.895 1545.39 431.989C1546.36 428.946 1546.84 425.764 1546.84 422.443V397.749C1546.84 394.567 1547.33 392.422 1548.3 391.315C1549.27 390.209 1550.93 389.655 1553.28 389.655H1593.12C1595.61 389.655 1597.41 390.139 1598.52 391.108C1599.62 392.076 1600.18 394.152 1600.18 397.333V425.556C1600.18 436.762 1598.17 446.861 1594.16 455.854C1590.15 464.708 1584.68 472.248 1577.77 478.474C1570.99 484.699 1562.89 489.472 1553.49 492.792C1544.22 495.974 1534.32 497.565 1523.81 497.565C1513.16 497.565 1502.99 495.974 1493.3 492.792C1483.76 489.472 1475.32 484.699 1467.99 478.474C1460.79 472.248 1455.05 464.708 1450.76 455.854C1446.61 446.861 1444.54 436.762 1444.54 425.556V273.444ZM1640.32 213.886C1640.32 211.396 1640.94 209.459 1642.19 208.076C1643.43 206.554 1645.23 205.793 1647.58 205.793H1690.12C1692.48 205.793 1694.21 206.554 1695.31 208.076C1696.56 209.459 1697.18 211.396 1697.18 213.886V320.966H1743.25V213.886C1743.25 211.673 1743.8 209.805 1744.91 208.283C1746.15 206.623 1748.02 205.793 1750.51 205.793H1793.05C1794.85 205.793 1796.44 206.346 1797.83 207.453C1799.35 208.56 1800.11 210.635 1800.11 213.679V485.114C1800.11 490.371 1797.41 493 1792.02 493H1750.51C1745.67 493 1743.25 490.371 1743.25 485.114V370.979H1697.18V485.114C1697.18 490.371 1694.83 493 1690.12 493H1647.58C1642.74 493 1640.32 490.371 1640.32 485.114V213.886Z" fill="#6600CE"/>
<path d="M773.884 243.354L752.233 233.028L752.198 233.1L752.164 233.173L773.884 243.354ZM791.108 220.527L775.583 202.241L775.497 202.314L775.411 202.388L791.108 220.527ZM816.426 206.416L824.011 229.173L824.109 229.14L824.206 229.107L816.426 206.416ZM873.286 205.17L865.825 227.969L866.013 228.03L866.202 228.089L873.286 205.17ZM893 214.716L878.92 234.137L879.081 234.254L879.244 234.368L893 214.716ZM906.904 228.205L887.527 242.345L887.62 242.472L887.714 242.598L906.904 228.205ZM920.601 259.956L896.99 264.193L897 264.247L897.009 264.301L920.601 259.956ZM920.808 300.214L940.767 313.521L941.084 313.046L941.378 312.556L920.808 300.214ZM869.966 300.214L850.007 313.521L850.493 314.25L851.031 314.942L869.966 300.214ZM867.268 267.011L844.409 274.285L844.459 274.441L844.511 274.597L867.268 267.011ZM862.91 258.918L843.855 273.49L844.118 273.833L844.393 274.167L862.91 258.918ZM830.33 258.295L812.079 242.728L811.944 242.886L811.812 243.046L830.33 258.295ZM826.179 433.027L803.635 441.225L803.865 441.857L804.131 442.476L826.179 433.027ZM830.952 440.705L812.899 456.501L830.952 440.705ZM837.8 445.893L827.531 467.572L828.202 467.89L828.891 468.165L837.8 445.893ZM855.854 445.686L846.405 423.637L846.207 423.722L846.011 423.81L855.854 445.686ZM863.325 440.705L880.287 457.667L880.561 457.394L880.825 457.112L863.325 440.705ZM868.098 433.234L846.05 423.785L845.934 424.054L845.826 424.325L868.098 433.234ZM869.966 383.637H893.954V359.649H869.966V383.637ZM917.28 455.854L939.13 465.755L939.159 465.691L939.187 465.628L917.28 455.854ZM876.606 492.792L884.395 515.481L884.546 515.429L884.696 515.375L876.606 492.792ZM791.316 478.889L775.619 497.028L775.804 497.188L775.993 497.345L791.316 478.889ZM774.092 456.269L752.44 466.595L752.471 466.661L752.503 466.726L774.092 456.269ZM767.659 273.444H791.647C791.647 265.244 793.151 258.769 795.604 253.535L773.884 243.354L752.164 233.173C746.317 245.647 743.671 259.233 743.671 273.444H767.659ZM773.884 243.354L795.536 253.68C798.469 247.531 802.232 242.624 806.806 238.666L791.108 220.527L775.411 202.388C765.597 210.881 757.877 221.192 752.233 233.028L773.884 243.354ZM791.108 220.527L806.634 238.813C811.523 234.662 817.237 231.431 824.011 229.173L816.426 206.416L808.84 183.658C796.522 187.764 785.359 193.94 775.583 202.241L791.108 220.527ZM816.426 206.416L824.206 229.107C831.285 226.68 838.817 225.423 846.931 225.423V201.435V177.447C833.74 177.447 820.935 179.511 808.646 183.724L816.426 206.416ZM846.931 201.435V225.423C854.95 225.423 861.129 226.432 865.825 227.969L873.286 205.17L880.747 182.372C870.225 178.928 858.834 177.447 846.931 177.447V201.435ZM873.286 205.17L866.202 228.089C871.709 229.791 875.83 231.897 878.92 234.137L893 214.716L907.081 195.295C899.104 189.512 890.081 185.254 880.37 182.252L873.286 205.17ZM893 214.716L879.244 234.368C882.757 236.827 885.449 239.498 887.527 242.345L906.904 228.205L926.282 214.065C920.889 206.675 914.312 200.353 906.757 195.065L893 214.716ZM906.904 228.205L887.714 242.598C890.31 246.06 892.244 249.484 893.635 252.874L915.828 243.769L938.021 234.664C934.984 227.263 930.969 220.311 926.095 213.812L906.904 228.205ZM915.828 243.769L893.635 252.874C895.246 256.801 896.339 260.568 896.99 264.193L920.601 259.956L944.211 255.718C942.925 248.552 940.837 241.528 938.021 234.664L915.828 243.769ZM920.601 259.956L897.009 264.301C897.766 268.409 898.065 271.775 898.065 274.482H922.053H946.041C946.041 268.334 945.372 262.017 944.192 255.61L920.601 259.956ZM922.053 274.482H898.065V293.366H922.053H946.041V274.482H922.053ZM922.053 293.366H898.065C898.065 294.007 898.016 293.859 898.141 293.174C898.243 292.612 898.668 290.49 900.239 287.873L920.808 300.214L941.378 312.556C945.734 305.296 946.041 297.412 946.041 293.366H922.053ZM920.808 300.214L900.849 286.908C903.883 282.357 907.918 280.069 910.763 279.045C913.365 278.109 915.256 278.094 915.62 278.094V302.082V326.07C920.278 326.07 932.963 325.227 940.767 313.521L920.808 300.214ZM915.62 302.082V278.094H875.154V302.082V326.07H915.62V302.082ZM875.154 302.082V278.094C875.747 278.094 883.206 278.166 888.901 285.487L869.966 300.214L851.031 314.942C858.662 324.753 869.58 326.07 875.154 326.07V302.082ZM869.966 300.214L889.925 286.908C891.723 289.605 892.321 291.944 892.523 292.916C892.738 293.957 892.709 294.475 892.709 294.196H868.721H844.733C844.733 298.25 845.131 306.208 850.007 313.521L869.966 300.214ZM868.721 294.196H892.709V275.935H868.721H844.733V294.196H868.721ZM868.721 275.935H892.709C892.709 270.296 891.804 264.761 890.025 259.426L867.268 267.011L844.511 274.597C844.669 275.072 844.733 275.485 844.733 275.935H868.721ZM867.268 267.011L890.127 259.738C888.278 253.926 885.399 248.491 881.427 243.669L862.91 258.918L844.393 274.167C844.381 274.153 844.368 274.135 844.355 274.116C844.342 274.097 844.334 274.083 844.331 274.078C844.329 274.073 844.335 274.084 844.348 274.114C844.361 274.144 844.382 274.2 844.409 274.285L867.268 267.011ZM862.91 258.918L881.965 244.346C877.851 238.966 872.669 234.799 866.79 231.859L856.062 253.315L845.334 274.771C845.205 274.706 844.959 274.564 844.659 274.319C844.356 274.071 844.081 273.785 843.855 273.49L862.91 258.918ZM856.062 253.315L866.79 231.859C860.19 228.559 853.231 227.252 846.516 227.252V251.24V275.228C846.777 275.228 846.751 275.253 846.505 275.199C846.245 275.143 845.83 275.018 845.334 274.771L856.062 253.315ZM846.516 251.24V227.252C833.479 227.252 821.122 232.125 812.079 242.728L830.33 258.295L848.581 273.862C848.494 273.964 848.301 274.166 847.991 274.399C847.677 274.635 847.326 274.839 846.971 274.993C846.22 275.321 845.928 275.228 846.516 275.228V251.24ZM830.33 258.295L811.812 243.046C804.076 252.44 800.531 263.643 800.531 275.312H824.519H848.507C848.507 274.346 848.643 273.915 848.673 273.829C848.693 273.769 848.713 273.707 848.847 273.545L830.33 258.295ZM824.519 275.312H800.531V422.858H824.519H848.507V275.312H824.519ZM824.519 422.858H800.531C800.531 428.968 801.439 435.184 803.635 441.225L826.179 433.027L848.723 424.829C848.706 424.782 848.507 424.22 848.507 422.858H824.519ZM826.179 433.027L804.131 442.476C806.293 447.521 809.187 452.258 812.899 456.501L830.952 440.705L849.005 424.909C848.844 424.725 848.556 424.343 848.228 423.577L826.179 433.027ZM830.952 440.705L812.899 456.501C816.975 461.16 821.898 464.904 827.531 467.572L837.8 445.893L848.069 424.214C848.221 424.286 848.409 424.395 848.602 424.542C848.795 424.687 848.929 424.822 849.005 424.909L830.952 440.705ZM837.8 445.893L828.891 468.165C834.679 470.481 840.699 471.541 846.724 471.541V447.553V423.565C846.624 423.565 846.558 423.561 846.524 423.558C846.489 423.555 846.48 423.552 846.494 423.555C846.508 423.557 846.537 423.564 846.578 423.575C846.619 423.587 846.664 423.602 846.709 423.621L837.8 445.893ZM846.724 447.553V471.541C853.114 471.541 859.555 470.325 865.698 467.561L855.854 445.686L846.011 423.81C846.279 423.689 846.519 423.62 846.689 423.585C846.854 423.551 846.879 423.565 846.724 423.565V447.553ZM855.854 445.686L865.304 467.734C870.796 465.38 875.893 462.062 880.287 457.667L863.325 440.705L846.363 423.743C846.411 423.695 846.458 423.653 846.501 423.618C846.544 423.583 846.577 423.559 846.595 423.547C846.613 423.535 846.611 423.538 846.583 423.553C846.555 423.568 846.497 423.597 846.405 423.637L855.854 445.686ZM863.325 440.705L880.825 457.112C884.906 452.758 888.133 447.736 890.37 442.143L868.098 433.234L845.826 424.325C845.825 424.327 845.826 424.326 845.827 424.322C845.829 424.318 845.832 424.313 845.835 424.306C845.839 424.299 845.843 424.291 845.847 424.284C845.852 424.276 845.856 424.269 845.86 424.262C845.864 424.256 845.868 424.251 845.87 424.248C845.872 424.245 845.872 424.245 845.871 424.247C845.868 424.25 845.854 424.267 845.825 424.299L863.325 440.705ZM868.098 433.234L890.147 442.684C892.736 436.643 893.954 430.298 893.954 423.896H869.966H845.978C845.978 423.976 845.974 424.021 845.973 424.037C845.971 424.052 845.971 424.044 845.977 424.016C845.982 423.989 845.991 423.951 846.005 423.906C846.019 423.862 846.034 423.821 846.05 423.785L868.098 433.234ZM869.966 423.896H893.954V383.637H869.966H845.978V423.896H869.966ZM869.966 383.637V359.649H854.402V383.637V407.625H869.966V383.637ZM854.402 383.637V359.649C856.858 359.649 862.85 360.483 867.72 366.002C872.084 370.948 872.164 375.923 872.164 376.582H848.176H824.188C824.188 381.944 825.306 390.446 831.746 397.744C838.69 405.615 847.796 407.625 854.402 407.625V383.637ZM848.176 376.582H872.164V345.246H848.176H824.188V376.582H848.176ZM848.176 345.246H872.164C872.164 345.496 872.203 350.15 868.161 355C863.421 360.688 857.291 361.763 854.402 361.763V337.775V313.787C847.363 313.787 838.12 316.108 831.305 324.286C825.187 331.627 824.188 340.015 824.188 345.246H848.176ZM854.402 337.775V361.763H915.828V337.775V313.787H854.402V337.775ZM915.828 337.775V361.763C914.279 361.763 908.798 361.291 904.016 356.245C899.466 351.441 899.31 346.416 899.31 345.661H923.298H947.286C947.286 339.649 945.886 330.681 938.845 323.249C931.574 315.574 922.357 313.787 915.828 313.787V337.775ZM923.298 345.661H899.31V425.556H923.298H947.286V345.661H923.298ZM923.298 425.556H899.31C899.31 433.858 897.836 440.561 895.374 446.08L917.28 455.854L939.187 465.628C944.748 453.162 947.286 439.666 947.286 425.556H923.298ZM917.28 455.854L895.431 445.953C892.723 451.929 889.186 456.731 884.839 460.643L900.886 478.474L916.933 496.304C926.421 487.765 933.814 477.487 939.13 465.755L917.28 455.854ZM900.886 478.474L884.839 460.643C880.373 464.663 875.023 467.879 868.517 470.21L876.606 492.792L884.696 515.375C896.729 511.065 907.565 504.735 916.933 496.304L900.886 478.474ZM876.606 492.792L868.818 470.104C862.264 472.354 854.956 473.577 846.724 473.577V497.565V521.553C859.796 521.553 872.41 519.595 884.395 515.481L876.606 492.792ZM846.724 497.565V473.577C838.671 473.577 831.211 472.366 824.219 470.035L816.633 492.792L809.048 515.55C821.148 519.583 833.748 521.553 846.724 521.553V497.565ZM816.633 492.792L824.219 470.035C817.337 467.741 811.555 464.514 806.638 460.432L791.316 478.889L775.993 497.345C785.742 505.438 796.838 511.48 809.048 515.55L816.633 492.792ZM791.316 478.889L807.013 460.75C802.369 456.731 798.598 451.834 795.681 445.812L774.092 456.269L752.503 466.726C758.164 478.412 765.875 488.595 775.619 497.028L791.316 478.889ZM774.092 456.269L795.744 445.943C793.211 440.633 791.647 434.01 791.647 425.556H767.659H743.671C743.671 440.068 746.395 453.92 752.44 466.595L774.092 456.269ZM767.659 425.556H791.647V273.444H767.659H743.671V425.556H767.659ZM960.121 366.621L974.848 385.556L974.978 385.455L975.106 385.352L960.121 366.621ZM1065.13 366.621L1048.16 383.583L1049.22 384.639L1050.4 385.556L1065.13 366.621ZM1064.92 403.974L1049.93 385.243L1049.45 385.632L1048.98 386.045L1064.92 403.974ZM960.328 404.182L946.572 423.833L947.004 424.136L947.45 424.419L960.328 404.182ZM958.253 370.979H982.241C982.241 372.545 981.991 375.034 980.768 377.886C979.484 380.882 977.435 383.543 974.848 385.556L960.121 366.621L945.393 347.686C936.973 354.235 934.265 363.509 934.265 370.979H958.253ZM960.121 366.621L975.106 385.352C973.994 386.241 970.156 388.949 964.063 388.949V364.96V340.972C955.481 340.972 949.014 344.786 945.135 347.889L960.121 366.621ZM964.063 364.96V388.949H1061.39V364.96V340.972H964.063V364.96ZM1061.39 364.96V388.949C1058.78 388.949 1056.11 388.404 1053.62 387.296C1051.18 386.213 1049.39 384.805 1048.16 383.583L1065.13 366.621L1082.09 349.658C1077.13 344.697 1069.99 340.972 1061.39 340.972V364.96ZM1065.13 366.621L1050.4 385.556C1048.06 383.737 1046.01 381.249 1044.65 378.228C1043.34 375.305 1043.01 372.644 1043.01 370.771H1066.99H1090.98C1090.98 362.747 1087.81 353.876 1079.85 347.686L1065.13 366.621ZM1066.99 370.771H1043.01V399.824H1066.99H1090.98V370.771H1066.99ZM1066.99 399.824H1043.01C1043.01 397.209 1043.58 394.259 1045.02 391.379C1046.44 388.545 1048.31 386.543 1049.93 385.243L1064.92 403.974L1079.9 422.706C1086.54 417.398 1090.98 409.316 1090.98 399.824H1066.99ZM1064.92 403.974L1048.98 386.045C1050.62 384.586 1054.81 381.646 1061.18 381.646V405.634V429.622C1070.04 429.622 1076.72 425.575 1080.85 421.903L1064.92 403.974ZM1061.18 405.634V381.646H963.648V405.634V429.622H1061.18V405.634ZM963.648 405.634V381.646C966.165 381.646 968.132 382.069 969.288 382.38C970.498 382.706 971.399 383.069 971.914 383.294C972.897 383.724 973.381 384.055 973.207 383.944L960.328 404.182L947.45 424.419C948.797 425.277 950.595 426.334 952.685 427.248C954.34 427.972 958.39 429.622 963.648 429.622V405.634ZM960.328 404.182L974.084 384.53C976.87 386.48 979.161 389.2 980.61 392.388C981.98 395.402 982.241 398.034 982.241 399.616H958.253H934.265C934.265 407.495 937.28 417.329 946.572 423.833L960.328 404.182ZM958.253 399.616H982.241V370.979H958.253H934.265V399.616H958.253ZM1094.06 207.868L1111.99 223.805L1112.4 223.34L1112.79 222.853L1094.06 207.868ZM1238.7 207.868L1219.97 222.853L1220.8 223.891L1221.74 224.83L1238.7 207.868ZM1238.7 254.353L1221.74 237.39L1221.24 237.889L1220.77 238.416L1238.7 254.353ZM1194.92 256.22V232.232H1170.93V256.22H1194.92ZM1193.05 491.132L1176.09 474.17L1175.59 474.669L1175.12 475.196L1193.05 491.132ZM1138.06 256.22H1162.04V232.232H1138.06V256.22ZM1092.4 213.471H1116.39C1116.39 214.028 1116.33 218.926 1111.99 223.805L1094.06 207.868L1076.13 191.931C1069.58 199.3 1068.41 207.934 1068.41 213.471H1092.4ZM1094.06 207.868L1112.79 222.853C1111.14 224.925 1108.84 226.842 1105.96 228.15C1103.15 229.428 1100.54 229.781 1098.63 229.781V205.793V181.805C1090.18 181.805 1081.45 185.229 1075.33 192.883L1094.06 207.868ZM1098.63 205.793V229.781H1234.35V205.793V181.805H1098.63V205.793ZM1234.35 205.793V229.781C1232.1 229.781 1229.33 229.33 1226.47 227.97C1223.6 226.604 1221.45 224.703 1219.97 222.853L1238.7 207.868L1257.43 192.883C1251.7 185.71 1243.3 181.805 1234.35 181.805V205.793ZM1238.7 207.868L1221.74 224.83C1216.9 219.99 1216.58 214.679 1216.58 213.471H1240.57H1264.56C1264.56 207.283 1263 198.236 1255.67 190.906L1238.7 207.868ZM1240.57 213.471H1216.58V248.75H1240.57H1264.56V213.471H1240.57ZM1240.57 248.75H1216.58C1216.58 247.542 1216.9 242.231 1221.74 237.39L1238.7 254.353L1255.67 271.315C1263 263.984 1264.56 254.937 1264.56 248.75H1240.57ZM1238.7 254.353L1220.77 238.416C1222.43 236.548 1224.64 234.858 1227.33 233.705C1229.98 232.572 1232.44 232.232 1234.35 232.232V256.22V280.208C1242.38 280.208 1250.58 277.097 1256.63 270.289L1238.7 254.353ZM1234.35 256.22V232.232H1194.92V256.22V280.208H1234.35V256.22ZM1194.92 256.22H1170.93V485.737H1194.92H1218.9V256.22H1194.92ZM1194.92 485.737H1170.93C1170.93 483.931 1171.48 478.774 1176.09 474.17L1193.05 491.132L1210.01 508.094C1217.1 501.001 1218.9 492.246 1218.9 485.737H1194.92ZM1193.05 491.132L1175.12 475.196C1176.59 473.541 1178.65 471.865 1181.34 470.658C1184.02 469.45 1186.66 469.012 1188.9 469.012V493V516.988C1197.44 516.988 1205.34 513.415 1210.98 507.069L1193.05 491.132ZM1188.9 493V469.012H1144.07V493V516.988H1188.9V493ZM1144.07 493V469.012C1147.08 469.012 1153.27 470.135 1158.03 475.879C1162.08 480.76 1162.04 485.443 1162.04 485.737H1138.06H1114.07C1114.07 490.873 1115.04 499.187 1121.09 506.489C1127.86 514.655 1137.06 516.988 1144.07 516.988V493ZM1138.06 485.737H1162.04V256.22H1138.06H1114.07V485.737H1138.06ZM1138.06 256.22V232.232H1098.63V256.22V280.208H1138.06V256.22ZM1098.63 256.22V232.232C1100.23 232.232 1102.53 232.493 1105.12 233.551C1107.79 234.645 1110.15 236.34 1111.99 238.416L1094.06 254.353L1076.13 270.289C1082.55 277.507 1091.07 280.208 1098.63 280.208V256.22ZM1094.06 254.353L1111.99 238.416C1116.33 243.294 1116.39 248.193 1116.39 248.75H1092.4H1068.41C1068.41 254.287 1069.58 262.921 1076.13 270.289L1094.06 254.353ZM1092.4 248.75H1116.39V213.471H1092.4H1068.41V248.75H1092.4ZM1274.28 208.076L1292.11 224.123L1292.49 223.703L1292.85 223.266L1274.28 208.076ZM1329.27 256.22V232.232H1305.28V256.22H1329.27ZM1329.27 322.834H1305.28V346.822H1329.27V322.834ZM1395.68 324.494L1379.74 342.423L1380.21 342.837L1380.69 343.226L1395.68 324.494ZM1329.27 372.639V348.651H1305.28V372.639H1329.27ZM1329.27 442.988H1305.28V466.976H1329.27V442.988ZM1412.07 444.855L1394.14 460.792L1395.08 461.847L1396.14 462.784L1412.07 444.855ZM1412.07 491.34L1429.04 508.302L1412.07 491.34ZM1272.41 213.886H1296.4C1296.4 215.288 1296.01 219.793 1292.11 224.123L1274.28 208.076L1256.45 192.029C1250.06 199.125 1248.42 207.504 1248.42 213.886H1272.41ZM1274.28 208.076L1292.85 223.266C1291.02 225.498 1288.62 227.308 1285.91 228.456C1283.31 229.555 1281.07 229.781 1279.68 229.781V205.793V181.805C1271.69 181.805 1262.42 184.689 1255.71 192.886L1274.28 208.076ZM1279.68 205.793V229.781H1406.68V205.793V181.805H1279.68V205.793ZM1406.68 205.793V229.781C1403.22 229.781 1396.91 228.382 1392.31 222.51C1390.39 220.063 1389.51 217.71 1389.11 216.176C1388.72 214.68 1388.71 213.68 1388.71 213.471H1412.7H1436.68C1436.68 208.433 1435.81 200.234 1430.07 192.915C1423.46 184.484 1414.15 181.805 1406.68 181.805V205.793ZM1412.7 213.471H1388.71V248.75H1412.7H1436.68V213.471H1412.7ZM1412.7 248.75H1388.71C1388.71 248.648 1388.63 244.127 1392.51 239.304C1397.19 233.49 1403.45 232.232 1406.68 232.232V256.22V280.208C1413.92 280.208 1423.18 277.705 1429.87 269.401C1435.76 262.088 1436.68 253.832 1436.68 248.75H1412.7ZM1406.68 256.22V232.232H1329.27V256.22V280.208H1406.68V256.22ZM1329.27 256.22H1305.28V322.834H1329.27H1353.26V256.22H1329.27ZM1329.27 322.834V346.822H1390.91V322.834V298.846H1329.27V322.834ZM1390.91 322.834V346.822C1389.59 346.822 1387.76 346.631 1385.67 345.906C1383.53 345.161 1381.5 343.982 1379.74 342.423L1395.68 324.494L1411.62 306.565C1405.28 300.93 1397.7 298.846 1390.91 298.846V322.834ZM1395.68 324.494L1380.69 343.226C1374.06 337.915 1373.77 331.128 1373.77 330.097H1397.75H1421.74C1421.74 323.81 1420.07 313.287 1410.66 305.763L1395.68 324.494ZM1397.75 330.097H1373.77V365.583H1397.75H1421.74V330.097H1397.75ZM1397.75 365.583H1373.77C1373.77 364.64 1373.98 358.357 1379.95 353.05L1395.89 370.979L1411.82 388.907C1420.28 381.387 1421.74 371.507 1421.74 365.583H1397.75ZM1395.89 370.979L1379.95 353.05C1384.1 349.36 1388.61 348.651 1390.91 348.651V372.639V396.627C1397.36 396.627 1405.18 394.81 1411.82 388.907L1395.89 370.979ZM1390.91 372.639V348.651H1329.27V372.639V396.627H1390.91V372.639ZM1329.27 372.639H1305.28V442.988H1329.27H1353.26V372.639H1329.27ZM1329.27 442.988V466.976H1407.72V442.988V419H1329.27V442.988ZM1407.72 442.988V466.976C1405.81 466.976 1403.35 466.637 1400.7 465.503C1398.01 464.35 1395.8 462.66 1394.14 460.792L1412.07 444.855L1430 428.919C1423.95 422.111 1415.75 419 1407.72 419V442.988ZM1412.07 444.855L1396.14 462.784C1390.43 457.71 1389.95 451.635 1389.95 450.043H1413.94H1437.93C1437.93 443.748 1436.21 434.214 1428.01 426.927L1412.07 444.855ZM1413.94 450.043H1389.95V485.737H1413.94H1437.93V450.043H1413.94ZM1413.94 485.737H1389.95C1389.95 484.529 1390.27 479.218 1395.11 474.378L1412.07 491.34L1429.04 508.302C1436.37 500.972 1437.93 491.925 1437.93 485.737H1413.94ZM1412.07 491.34L1395.11 474.378C1396.93 472.557 1399.16 471.104 1401.61 470.168C1404.01 469.257 1406.15 469.012 1407.72 469.012V493V516.988C1414.85 516.988 1422.75 514.586 1429.04 508.302L1412.07 491.34ZM1407.72 493V469.012H1279.68V493V516.988H1407.72V493ZM1279.68 493V469.012C1281.48 469.012 1287.1 469.594 1291.87 474.777C1296.3 479.588 1296.4 484.512 1296.4 485.114H1272.41H1248.42C1248.42 490.974 1249.73 499.841 1256.58 507.28C1263.78 515.092 1273.03 516.988 1279.68 516.988V493ZM1272.41 485.114H1296.4V213.886H1272.41H1248.42V485.114H1272.41ZM1450.35 245.014L1428.5 235.114L1428.46 235.193L1428.43 235.272L1450.35 245.014ZM1466.74 222.187L1482.98 239.841L1482.99 239.834L1483 239.827L1466.74 222.187ZM1491.85 207.038L1500.2 229.525L1500.34 229.473L1500.48 229.419L1491.85 207.038ZM1557.22 207.868L1547.27 229.695L1547.46 229.783L1547.66 229.867L1557.22 207.868ZM1580.67 224.47L1562.66 240.317L1562.83 240.508L1563 240.695L1580.67 224.47ZM1594.37 247.712L1571.61 255.298L1571.66 255.459L1571.72 255.62L1594.37 247.712ZM1597.48 301.667L1577.24 288.788L1577.07 289.055L1576.91 289.325L1597.48 301.667ZM1547.26 301.875L1527.61 315.631L1527.95 316.125L1528.32 316.602L1547.26 301.875ZM1544.35 267.219L1521.5 274.492L1521.55 274.649L1521.6 274.804L1544.35 267.219ZM1533.36 253.522L1521.34 274.282L1521.97 274.65L1522.63 274.978L1533.36 253.522ZM1514.89 253.315L1524.73 275.19L1525.18 274.989L1525.61 274.771L1514.89 253.315ZM1507.62 258.71L1489.64 242.839L1489.6 242.877L1489.57 242.914L1507.62 258.71ZM1502.85 431.989L1479.99 439.263L1480.04 439.419L1480.09 439.575L1502.85 431.989ZM1507.21 439.875L1525.73 424.626L1507.21 439.875ZM1514.26 445.478L1503.54 466.934L1503.74 467.037L1503.95 467.136L1514.26 445.478ZM1533.98 445.478L1523.67 423.82L1523.46 423.919L1523.25 424.022L1533.98 445.478ZM1541.03 439.875L1522.52 424.626L1522.24 424.96L1521.98 425.303L1541.03 439.875ZM1545.39 431.989L1568.15 439.575L1568.2 439.419L1568.25 439.263L1545.39 431.989ZM1594.16 455.854L1616.01 465.755L1616.04 465.691L1616.07 465.628L1594.16 455.854ZM1577.77 478.474L1561.72 460.643L1561.63 460.724L1561.54 460.806L1577.77 478.474ZM1553.49 492.792L1561.27 515.481L1561.37 515.447L1561.47 515.413L1553.49 492.792ZM1493.3 492.792L1485.42 515.449L1485.62 515.517L1485.82 515.582L1493.3 492.792ZM1467.99 478.474L1452.29 496.613L1452.38 496.687L1452.46 496.76L1467.99 478.474ZM1450.76 455.854L1428.98 465.906L1429.08 466.11L1429.17 466.311L1450.76 455.854ZM1444.54 273.444H1468.53C1468.53 266.313 1469.86 260.185 1472.27 254.757L1450.35 245.014L1428.43 235.272C1423.09 247.275 1420.55 260.1 1420.55 273.444H1444.54ZM1450.35 245.014L1472.2 254.915C1474.93 248.893 1478.52 243.948 1482.98 239.841L1466.74 222.187L1450.5 204.533C1441.13 213.154 1433.79 223.427 1428.5 235.114L1450.35 245.014ZM1466.74 222.187L1483 239.827C1487.59 235.597 1493.22 232.12 1500.2 229.525L1491.85 207.038L1483.5 184.551C1471.12 189.15 1460.01 195.773 1450.49 204.547L1466.74 222.187ZM1491.85 207.038L1500.48 229.419C1507.1 226.865 1514.79 225.423 1523.81 225.423V201.435V177.447C1509.59 177.447 1495.97 179.74 1483.22 184.657L1491.85 207.038ZM1523.81 201.435V225.423C1534.06 225.423 1541.65 227.134 1547.27 229.695L1557.22 207.868L1567.17 186.041C1553.97 180.025 1539.29 177.447 1523.81 177.447V201.435ZM1557.22 207.868L1547.66 229.867C1554.39 232.795 1559.19 236.369 1562.66 240.317L1580.67 224.47L1598.68 208.623C1589.98 198.735 1579.14 191.242 1566.79 185.869L1557.22 207.868ZM1580.67 224.47L1563 240.695C1566.95 244.99 1569.78 249.794 1571.61 255.298L1594.37 247.712L1617.12 240.126C1613.15 228.198 1606.85 217.508 1598.34 208.244L1580.67 224.47ZM1594.37 247.712L1571.72 255.62C1573.89 261.823 1574.94 268.074 1574.94 274.482H1598.93H1622.92C1622.92 262.628 1620.93 251.033 1617.01 239.803L1594.37 247.712ZM1598.93 274.482H1574.94V294.611H1598.93H1622.92V274.482H1598.93ZM1598.93 294.611H1574.94C1574.94 295.067 1574.9 294.757 1575.07 293.924C1575.24 293.135 1575.74 291.153 1577.24 288.788L1597.48 301.667L1617.72 314.546C1622.37 307.231 1622.92 299.314 1622.92 294.611H1598.93ZM1597.48 301.667L1576.91 289.325C1579.6 284.848 1583.43 282.239 1586.65 280.951C1589.53 279.8 1591.71 279.754 1592.29 279.754V303.742V327.73C1597.82 327.73 1610.65 326.345 1618.05 314.009L1597.48 301.667ZM1592.29 303.742V279.754H1552.45V303.742V327.73H1592.29V303.742ZM1552.45 303.742V279.754C1553.04 279.754 1560.5 279.826 1566.19 287.147L1547.26 301.875L1528.32 316.602C1535.96 326.413 1546.87 327.73 1552.45 327.73V303.742ZM1547.26 301.875L1566.91 288.118C1568.67 290.624 1569.32 292.85 1569.57 293.945C1569.82 295.058 1569.8 295.648 1569.8 295.441H1545.81H1521.82C1521.82 300.11 1522.43 308.232 1527.61 315.631L1547.26 301.875ZM1545.81 295.441H1569.8V276.142H1545.81H1521.82V295.441H1545.81ZM1545.81 276.142H1569.8C1569.8 270.504 1568.89 264.969 1567.11 259.633L1544.35 267.219L1521.6 274.804C1521.76 275.279 1521.82 275.693 1521.82 276.142H1545.81ZM1544.35 267.219L1567.21 259.945C1565.47 254.476 1562.86 249.268 1559.26 244.554L1540.2 259.125L1521.15 273.697C1521.16 273.708 1521.19 273.754 1521.25 273.859C1521.3 273.966 1521.39 274.167 1521.5 274.492L1544.35 267.219ZM1540.2 259.125L1559.26 244.554C1555.14 239.173 1549.96 235.007 1544.08 232.067L1533.36 253.522L1522.63 274.978C1522.5 274.914 1522.25 274.772 1521.95 274.527C1521.65 274.279 1521.37 273.992 1521.15 273.697L1540.2 259.125ZM1533.36 253.522L1545.37 232.763C1538.61 228.846 1531.31 227.252 1524.23 227.252V251.24V275.228C1524.19 275.228 1523.85 275.223 1523.28 275.082C1522.7 274.937 1522.03 274.681 1521.34 274.282L1533.36 253.522ZM1524.23 251.24V227.252C1517.49 227.252 1510.63 228.623 1504.16 231.859L1514.89 253.315L1525.61 274.771C1525.19 274.983 1524.8 275.109 1524.5 275.175C1524.21 275.24 1524.1 275.228 1524.23 275.228V251.24ZM1514.89 253.315L1505.04 231.44C1499.06 234.132 1493.89 238.018 1489.64 242.839L1507.62 258.71L1525.61 274.581C1525.59 274.609 1525.48 274.717 1525.3 274.854C1525.11 274.992 1524.91 275.107 1524.73 275.19L1514.89 253.315ZM1507.62 258.71L1489.57 242.914C1485.66 247.389 1482.7 252.438 1480.64 257.849L1503.06 266.389L1525.47 274.928C1525.56 274.709 1525.62 274.593 1525.65 274.55C1525.66 274.527 1525.67 274.515 1525.67 274.511C1525.68 274.507 1525.68 274.507 1525.68 274.507L1507.62 258.71ZM1503.06 266.389L1480.64 257.849C1478.43 263.662 1477.41 269.688 1477.41 275.727H1501.4H1525.39C1525.39 275.404 1525.41 275.204 1525.43 275.101C1525.45 275.001 1525.47 274.951 1525.47 274.928L1503.06 266.389ZM1501.4 275.727H1477.41V422.443H1501.4H1525.39V275.727H1501.4ZM1501.4 422.443H1477.41C1477.41 428.133 1478.25 433.775 1479.99 439.263L1502.85 431.989L1525.71 424.716C1525.52 424.116 1525.39 423.394 1525.39 422.443H1501.4ZM1502.85 431.989L1480.09 439.575C1481.99 445.259 1484.87 450.488 1488.69 455.124L1507.21 439.875L1525.73 424.626C1525.68 424.57 1525.67 424.544 1525.66 424.537C1525.66 424.53 1525.64 424.494 1525.61 424.404L1502.85 431.989ZM1507.21 439.875L1488.69 455.124C1492.8 460.108 1497.81 464.073 1503.54 466.934L1514.26 445.478L1524.99 424.022C1525.05 424.051 1525.18 424.125 1525.34 424.254C1525.51 424.385 1525.64 424.519 1525.73 424.626L1507.21 439.875ZM1514.26 445.478L1503.95 467.136C1510.56 470.282 1517.49 471.541 1524.23 471.541V447.553V423.565C1523.84 423.565 1523.72 423.529 1523.83 423.551C1523.94 423.574 1524.21 423.646 1524.58 423.82L1514.26 445.478ZM1524.23 447.553V471.541C1530.92 471.541 1537.99 470.293 1544.71 466.934L1533.98 445.478L1523.25 424.022C1523.82 423.74 1524.26 423.618 1524.47 423.572C1524.68 423.528 1524.62 423.565 1524.23 423.565V447.553ZM1533.98 445.478L1544.29 467.136C1550.33 464.262 1555.78 460.077 1560.09 454.447L1541.03 439.875L1521.98 425.303C1522.3 424.887 1522.65 424.532 1523 424.254C1523.35 423.982 1523.6 423.853 1523.67 423.82L1533.98 445.478ZM1541.03 439.875L1559.55 455.124C1563.37 450.488 1566.25 445.259 1568.15 439.575L1545.39 431.989L1522.64 424.404C1522.6 424.494 1522.58 424.53 1522.58 424.537C1522.58 424.544 1522.56 424.57 1522.52 424.626L1541.03 439.875ZM1545.39 431.989L1568.25 439.263C1570 433.775 1570.83 428.133 1570.83 422.443H1546.84H1522.86C1522.86 423.394 1522.72 424.116 1522.53 424.716L1545.39 431.989ZM1546.84 422.443H1570.83V397.749H1546.84H1522.86V422.443H1546.84ZM1546.84 397.749H1570.83C1570.83 397.219 1570.89 397.794 1570.61 399.037C1570.37 400.083 1569.48 403.536 1566.35 407.112L1548.3 391.315L1530.24 375.519C1526.15 380.201 1524.53 385.281 1523.81 388.47C1523.04 391.858 1522.86 395.096 1522.86 397.749H1546.84ZM1548.3 391.315L1566.35 407.112C1560.63 413.645 1553.77 413.643 1553.28 413.643V389.655V365.667C1548.08 365.667 1537.9 366.773 1530.24 375.519L1548.3 391.315ZM1553.28 389.655V413.643H1593.12V389.655V365.667H1553.28V389.655ZM1593.12 389.655V413.643C1592.92 413.643 1591.79 413.635 1590.1 413.182C1588.38 412.718 1585.56 411.642 1582.72 409.161L1598.52 391.108L1614.31 373.055C1606.68 366.372 1597.71 365.667 1593.12 365.667V389.655ZM1598.52 391.108L1582.72 409.161C1578.39 405.373 1577 401.126 1576.58 399.571C1576.13 397.877 1576.19 396.93 1576.19 397.333H1600.18H1624.17C1624.17 394.555 1623.95 390.979 1622.94 387.21C1621.97 383.58 1619.75 377.812 1614.31 373.055L1598.52 391.108ZM1600.18 397.333H1576.19V425.556H1600.18H1624.17V397.333H1600.18ZM1600.18 425.556H1576.19C1576.19 433.858 1574.72 440.561 1572.25 446.08L1594.16 455.854L1616.07 465.628C1621.63 453.162 1624.17 439.666 1624.17 425.556H1600.18ZM1594.16 455.854L1572.31 445.953C1569.6 451.929 1566.07 456.731 1561.72 460.643L1577.77 478.474L1593.81 496.304C1603.3 487.765 1610.69 477.487 1616.01 465.755L1594.16 455.854ZM1577.77 478.474L1561.54 460.806C1557.34 464.663 1552.11 467.838 1545.5 470.172L1553.49 492.792L1561.47 515.413C1573.67 511.106 1584.63 504.736 1593.99 496.142L1577.77 478.474ZM1553.49 492.792L1545.7 470.104C1539.11 472.365 1531.87 473.577 1523.81 473.577V497.565V521.553C1536.78 521.553 1549.32 519.584 1561.27 515.481L1553.49 492.792ZM1523.81 497.565V473.577C1515.59 473.577 1507.95 472.356 1500.79 470.003L1493.3 492.792L1485.82 515.582C1498.02 519.593 1510.73 521.553 1523.81 521.553V497.565ZM1493.3 492.792L1501.19 470.136C1494.29 467.738 1488.48 464.401 1483.51 460.188L1467.99 478.474L1452.46 496.76C1462.16 504.997 1473.23 511.206 1485.42 515.449L1493.3 492.792ZM1467.99 478.474L1483.68 460.335C1479.04 456.316 1475.27 451.419 1472.35 445.397L1450.76 455.854L1429.17 466.311C1434.83 477.997 1442.55 488.18 1452.29 496.613L1467.99 478.474ZM1450.76 455.854L1472.54 445.802C1470.03 440.351 1468.53 433.748 1468.53 425.556H1444.54H1420.55C1420.55 439.776 1423.2 453.372 1428.98 465.906L1450.76 455.854ZM1444.54 425.556H1468.53V273.444H1444.54H1420.55V425.556H1444.54ZM1642.19 208.076L1660.02 224.123L1660.4 223.703L1660.75 223.266L1642.19 208.076ZM1695.31 208.076L1675.91 222.185L1676.65 223.195L1677.48 224.123L1695.31 208.076ZM1697.18 320.966H1673.19V344.954H1697.18V320.966ZM1743.25 320.966V344.954H1767.24V320.966H1743.25ZM1744.91 208.283L1725.72 193.89L1725.61 194.031L1725.51 194.174L1744.91 208.283ZM1797.83 207.453L1782.84 226.185L1783.27 226.529L1783.72 226.853L1797.83 207.453ZM1743.25 370.979H1767.24V346.99H1743.25V370.979ZM1697.18 370.979V346.99H1673.19V370.979H1697.18ZM1640.32 213.886H1664.31C1664.31 215.288 1663.91 219.793 1660.02 224.123L1642.19 208.076L1624.36 192.029C1617.97 199.125 1616.33 207.504 1616.33 213.886H1640.32ZM1642.19 208.076L1660.75 223.266C1658.93 225.498 1656.53 227.308 1653.82 228.456C1651.22 229.555 1648.98 229.781 1647.58 229.781V205.793V181.805C1639.6 181.805 1630.33 184.689 1623.62 192.886L1642.19 208.076ZM1647.58 205.793V229.781H1690.12V205.793V181.805H1647.58V205.793ZM1690.12 205.793V229.781C1688.76 229.781 1686.35 229.565 1683.52 228.32C1680.52 226.999 1677.86 224.87 1675.91 222.185L1695.31 208.076L1714.71 193.967C1707.97 184.69 1698.01 181.805 1690.12 181.805V205.793ZM1695.31 208.076L1677.48 224.123C1673.59 219.793 1673.19 215.288 1673.19 213.886H1697.18H1721.17C1721.17 207.504 1719.53 199.125 1713.14 192.029L1695.31 208.076ZM1697.18 213.886H1673.19V320.966H1697.18H1721.17V213.886H1697.18ZM1697.18 320.966V344.954H1743.25V320.966V296.978H1697.18V320.966ZM1743.25 320.966H1767.24V213.886H1743.25H1719.26V320.966H1743.25ZM1743.25 213.886H1767.24C1767.24 215.821 1766.68 219.127 1764.31 222.392L1744.91 208.283L1725.51 194.174C1720.92 200.483 1719.26 207.525 1719.26 213.886H1743.25ZM1744.91 208.283L1764.1 222.676C1762.31 225.068 1759.85 227.062 1756.99 228.336C1754.26 229.548 1751.91 229.781 1750.51 229.781V205.793V181.805C1742.17 181.805 1732.42 184.95 1725.72 193.89L1744.91 208.283ZM1750.51 205.793V229.781H1793.05V205.793V181.805H1750.51V205.793ZM1793.05 205.793V229.781C1791.45 229.781 1789.62 229.527 1787.72 228.865C1785.81 228.2 1784.17 227.245 1782.84 226.185L1797.83 207.453L1812.81 188.722C1807.11 184.157 1800.21 181.805 1793.05 181.805V205.793ZM1797.83 207.453L1783.72 226.853C1780 224.148 1777.98 220.729 1777.02 218.098C1776.14 215.7 1776.12 213.987 1776.12 213.679H1800.11H1824.1C1824.1 207.744 1822.72 195.896 1811.94 188.053L1797.83 207.453ZM1800.11 213.679H1776.12V485.114H1800.11H1824.1V213.679H1800.11ZM1800.11 485.114H1776.12C1776.12 483.885 1776.48 478.594 1781.35 473.848C1786.1 469.214 1791.17 469.012 1792.02 469.012V493V516.988C1798.26 516.988 1807.37 515.472 1814.83 508.21C1822.4 500.835 1824.1 491.601 1824.1 485.114H1800.11ZM1792.02 493V469.012H1750.51V493V516.988H1792.02V493ZM1750.51 493V469.012C1752.32 469.012 1757.94 469.594 1762.71 474.777C1767.14 479.588 1767.24 484.512 1767.24 485.114H1743.25H1719.26C1719.26 490.974 1720.57 499.841 1727.42 507.28C1734.62 515.092 1743.86 516.988 1750.51 516.988V493ZM1743.25 485.114H1767.24V370.979H1743.25H1719.26V485.114H1743.25ZM1743.25 370.979V346.99H1697.18V370.979V394.967H1743.25V370.979ZM1697.18 370.979H1673.19V485.114H1697.18H1721.17V370.979H1697.18ZM1697.18 485.114H1673.19C1673.19 484.663 1673.24 479.844 1677.54 475.033C1682.3 469.715 1688.05 469.012 1690.12 469.012V493V516.988C1696.91 516.988 1706.18 514.97 1713.29 507.024C1719.95 499.585 1721.17 490.823 1721.17 485.114H1697.18ZM1690.12 493V469.012H1647.58V493V516.988H1690.12V493ZM1647.58 493V469.012C1649.39 469.012 1655.01 469.594 1659.78 474.777C1664.21 479.588 1664.31 484.512 1664.31 485.114H1640.32H1616.33C1616.33 490.974 1617.64 499.841 1624.49 507.28C1631.69 515.092 1640.93 516.988 1647.58 516.988V493ZM1640.32 485.114H1664.31V213.886H1640.32H1616.33V485.114H1640.32Z" fill="white" mask="url(#path-5-outside-2_5949_1573)"/>
<defs>
<radialGradient id="paint0_radial_5949_1573" cx="0" cy="0" r="1" gradientUnits="userSpaceOnUse" gradientTransform="translate(429.078 231.227) rotate(115.598) scale(512.968 1389.83)">
<stop stop-color="#6600CE"/>
<stop offset="1" stop-color="#330068"/>
</radialGradient>
<linearGradient id="paint1_linear_5949_1573" x1="371" y1="105.059" x2="371" y2="603.059" gradientUnits="userSpaceOnUse">
<stop stop-color="white"/>
<stop offset="1" stop-color="#6600CE" stop-opacity="0"/>
</linearGradient>
</defs>
</svg>
