<svg width="1263" height="1258" viewBox="0 0 1263 1258" fill="none" xmlns="http://www.w3.org/2000/svg">
<path d="M1257.08 438.121H722.907C696.24 438.121 682.906 438.122 672.178 441.842C652.672 448.606 637.342 463.936 630.578 483.441C626.858 494.17 626.857 507.503 626.857 534.171C626.857 560.839 626.858 574.173 630.578 584.901C637.342 604.407 652.672 619.737 672.178 626.501C682.906 630.221 696.24 630.222 722.907 630.222H1257.07C1256.16 976.58 975.109 1257.08 628.538 1257.08C281.406 1257.08 0 975.67 0 628.538C0.000231029 281.406 281.406 0.000230917 628.538 0H1257.08V438.121Z" fill="white"/>
<path d="M706.982 490.87H772.898V509.475H749.11V588.68H729.84V509.475H706.982V490.87ZM860.599 490.87H927.312V509.475H879.869V530.339H921.864V548.944H879.869V570.075H929.173V588.68H860.599V490.87ZM1091.57 580.573C1090.51 581.459 1088.51 582.655 1085.59 584.161C1082.76 585.667 1079.26 586.996 1075.09 588.148C1070.93 589.3 1066.32 589.831 1061.27 589.743C1053.56 589.566 1046.65 588.192 1040.54 585.623C1034.52 582.965 1029.38 579.377 1025.12 574.859C1020.96 570.34 1017.77 565.157 1015.56 559.31C1013.34 553.463 1012.23 547.217 1012.23 540.572C1012.23 533.13 1013.34 526.308 1015.56 520.106C1017.86 513.905 1021.09 508.545 1025.26 504.026C1029.51 499.508 1034.56 496.008 1040.41 493.528C1046.25 491.047 1052.72 489.806 1059.81 489.806C1066.37 489.806 1072.17 490.692 1077.22 492.464C1082.27 494.236 1086.39 496.141 1089.58 498.179L1082 516.385C1079.79 514.702 1076.82 512.974 1073.1 511.202C1069.47 509.342 1065.26 508.412 1060.47 508.412C1056.75 508.412 1053.17 509.209 1049.71 510.804C1046.34 512.31 1043.33 514.48 1040.67 517.316C1038.1 520.151 1036.07 523.473 1034.56 527.283C1033.05 531.004 1032.3 535.079 1032.3 539.509C1032.3 544.204 1032.97 548.501 1034.29 552.4C1035.71 556.298 1037.71 559.664 1040.27 562.5C1042.84 565.246 1045.9 567.372 1049.44 568.878C1053.08 570.385 1057.15 571.138 1061.67 571.138C1066.9 571.138 1071.37 570.296 1075.09 568.613C1078.81 566.929 1081.65 565.157 1083.6 563.297L1091.57 580.573ZM1262.24 490.87V588.68H1242.97V548.944H1199.25V588.68H1179.98V490.87H1199.25V530.339H1242.97V490.87H1262.24Z" fill="white"/>
</svg>
